<svg width="50" height="50" viewBox="0 0 50 50" xmlns="http://www.w3.org/2000/svg">
  <defs>
    <linearGradient id="logoGradient" x1="0%" y1="0%" x2="100%" y2="100%">
      <stop offset="0%" style="stop-color:#FF6B9D;stop-opacity:1" />
      <stop offset="100%" style="stop-color:#C44569;stop-opacity:1" />
    </linearGradient>
  </defs>
  
  <!-- Background circle -->
  <circle cx="25" cy="25" r="23" fill="url(#logoGradient)" stroke="#fff" stroke-width="2"/>
  
  <!-- Flower petals -->
  <g transform="translate(25, 25)">
    <ellipse cx="0" cy="-8" rx="4" ry="8" fill="#fff" opacity="0.9" transform="rotate(0)"/>
    <ellipse cx="0" cy="-8" rx="4" ry="8" fill="#fff" opacity="0.9" transform="rotate(45)"/>
    <ellipse cx="0" cy="-8" rx="4" ry="8" fill="#fff" opacity="0.9" transform="rotate(90)"/>
    <ellipse cx="0" cy="-8" rx="4" ry="8" fill="#fff" opacity="0.9" transform="rotate(135)"/>
    <ellipse cx="0" cy="-8" rx="4" ry="8" fill="#fff" opacity="0.9" transform="rotate(180)"/>
    <ellipse cx="0" cy="-8" rx="4" ry="8" fill="#fff" opacity="0.9" transform="rotate(225)"/>
    <ellipse cx="0" cy="-8" rx="4" ry="8" fill="#fff" opacity="0.9" transform="rotate(270)"/>
    <ellipse cx="0" cy="-8" rx="4" ry="8" fill="#fff" opacity="0.9" transform="rotate(315)"/>
  </g>
  
  <!-- Center -->
  <circle cx="25" cy="25" r="4" fill="#FFD93D"/>
  
  <!-- Sparkles -->
  <circle cx="15" cy="15" r="1" fill="#fff" opacity="0.8"/>
  <circle cx="35" cy="15" r="1" fill="#fff" opacity="0.8"/>
  <circle cx="15" cy="35" r="1" fill="#fff" opacity="0.8"/>
  <circle cx="35" cy="35" r="1" fill="#fff" opacity="0.8"/>
</svg>
